<?xml version="1.0" encoding="utf-8"?>
<!-- Generator: Adobe Illustrator 15.0.0, SVG Export Plug-In  -->
<!DOCTYPE svg PUBLIC "-//W3C//DTD SVG 1.1//EN" "http://www.w3.org/Graphics/SVG/1.1/DTD/svg11.dtd" [
	<!ENTITY ns_flows "http://ns.adobe.com/Flows/1.0/">
]>
<svg version="1.1"
	 xmlns="http://www.w3.org/2000/svg" xmlns:xlink="http://www.w3.org/1999/xlink" xmlns:a="http://ns.adobe.com/AdobeSVGViewerExtensions/3.0/"
	 x="0px" y="0px" width="412px" height="411px" viewBox="-1.26 -0.354 412 411"
	 overflow="visible" enable-background="new -1.26 -0.354 412 411" xml:space="preserve">
<defs>
</defs>
<path fill="#00AAFF" stroke="#4D4D4D" stroke-width="2.9922" stroke-miterlimit="10" d="M205.323,205.281l197.903-48.597
	c6.869,27.977,7.759,56.336,2.653,84.696L205.323,205.281z"/>
<path fill="#00AAFF" stroke="#3B3F43" stroke-width="2.9922" stroke-miterlimit="10" d="M205.323,205.281l154.27-133.146
	c22.355,25.899,35.472,51.322,43.634,84.549L205.323,205.281z"/>
<path fill="#E5EEF9" stroke="#3B3F43" stroke-width="2.9922" stroke-miterlimit="10" d="M357.245,69.463
	c-6.001-6.714-13.507-14.01-20.382-19.824c-85.959-72.645-214.53-61.856-287.18,24.103l155.64,131.539l154.27-133.146
	C358.418,70.771,358.447,70.807,357.245,69.463z"/>
<path fill="#00AAFF" stroke="#3B3F43" stroke-width="2.9922" stroke-miterlimit="10" d="M205.323,205.281L43.014,82.066
	c2.994-3.943,3.477-4.543,6.67-8.324L205.323,205.281z"/>
<path fill="#00AAFF" stroke="#42413F" stroke-width="2.9922" stroke-miterlimit="10" d="M205.323,205.281L2.738,183.263
	c4.134-38.041,17.139-70.717,40.276-101.196L205.323,205.281z"/>
<path fill="#00AAFF" stroke="#3B3F43" stroke-width="2.9922" stroke-miterlimit="10" d="M205.323,205.281L405.88,241.38
	c-19.937,110.764-125.887,184.395-236.654,164.458C62.891,386.7-8.938,290.675,2.738,183.263L205.323,205.281z"/>
</svg>
